<svg width="47" height="47" viewBox="0 0 47 47" fill="none" xmlns="http://www.w3.org/2000/svg">
<path d="M23.875 46.25C11.1186 46.25 0.75 35.8814 0.75 23.125C0.75 10.3686 11.1186 0 23.875 0C36.6314 0 47 10.3686 47 23.125C47 35.8814 36.6314 46.25 23.875 46.25ZM23.875 3.22674C12.9041 3.22674 3.97674 12.1541 3.97674 23.125C3.97674 34.0959 12.9041 43.0233 23.875 43.0233C34.8459 43.0233 43.7733 34.0959 43.7733 23.125C43.7733 12.1541 34.8459 3.22674 23.875 3.22674Z" fill="#292D32"/>
<path d="M26.5729 23.8958H17.3229C16.6908 23.8958 16.1667 23.3717 16.1667 22.7396C16.1667 22.1075 16.6908 21.5833 17.3229 21.5833H26.5729C27.205 21.5833 27.7292 22.1075 27.7292 22.7396C27.7292 23.3717 27.205 23.8958 26.5729 23.8958Z" fill="#292D32"/>
<path d="M25.0274 28.517C24.7345 28.517 24.4416 28.4091 24.2103 28.1778C23.7632 27.7307 23.7632 26.9907 24.2103 26.5436L28.0182 22.7357L24.2103 18.9278C23.7632 18.4807 23.7632 17.7407 24.2103 17.2936C24.6574 16.8466 25.3974 16.8466 25.8445 17.2936L30.4695 21.9186C30.9166 22.3657 30.9166 23.1057 30.4695 23.5528L25.8445 28.1778C25.6132 28.4091 25.3203 28.517 25.0274 28.517Z" fill="#292D32"/>
</svg>
