<svg width="47" height="47" viewBox="0 0 47 47" fill="none" xmlns="http://www.w3.org/2000/svg">
<path d="M23.125 0.75C35.8814 0.75 46.25 11.1186 46.25 23.875C46.25 36.6314 35.8814 47 23.125 47C10.3686 47 0 36.6314 0 23.875C0 11.1186 10.3686 0.75 23.125 0.75ZM23.125 43.7733C34.0959 43.7733 43.0233 34.8459 43.0233 23.875C43.0233 12.9041 34.0959 3.97674 23.125 3.97674C12.1541 3.97674 3.22674 12.9041 3.22674 23.875C3.22674 34.8459 12.1541 43.7733 23.125 43.7733Z" fill="#292D32"/>
<path d="M20.4271 23.1042H29.6771C30.3091 23.1042 30.8333 23.6283 30.8333 24.2604C30.8333 24.8925 30.3091 25.4167 29.6771 25.4167H20.4271C19.795 25.4167 19.2708 24.8925 19.2708 24.2604C19.2708 23.6283 19.795 23.1042 20.4271 23.1042Z" fill="#292D32"/>
<path d="M21.9726 18.483C22.2655 18.483 22.5584 18.5909 22.7897 18.8222C23.2368 19.2693 23.2368 20.0093 22.7897 20.4564L18.9818 24.2643L22.7897 28.0722C23.2368 28.5193 23.2368 29.2593 22.7897 29.7064C22.3426 30.1534 21.6026 30.1534 21.1555 29.7064L16.5305 25.0814C16.0834 24.6343 16.0834 23.8943 16.5305 23.4472L21.1555 18.8222C21.3868 18.5909 21.6797 18.483 21.9726 18.483Z" fill="#292D32"/>
</svg>
