<svg width="18" height="18" viewBox="0 0 18 18" fill="none" xmlns="http://www.w3.org/2000/svg">
<path d="M8.99992 0.000154202C6.61299 0.000154202 4.32388 0.948323 2.63599 2.63614C0.948168 4.32396 0 6.61326 0 9.00008C0 11.3869 0.948168 13.6761 2.63599 15.364C4.3238 17.0518 6.61311 18 8.99992 18C11.3867 18 13.676 17.0518 15.3639 15.364C17.0517 13.6762 17.9998 11.3869 17.9998 9.00008C17.9998 7.4203 17.584 5.86825 16.7942 4.49992C16.0042 3.13182 14.868 1.99562 13.4999 1.20567C12.1317 0.415841 10.5796 0 8.99977 0L8.99992 0.000154202ZM8.99992 16.2002C7.09032 16.2002 5.25894 15.4416 3.90885 14.0913C2.55853 12.7411 1.79991 10.9098 1.79991 9.00023C1.79991 7.0907 2.55853 5.25924 3.90885 3.90916C5.25901 2.55884 7.0904 1.80022 8.99992 1.80022C10.9095 1.80022 12.7409 2.55884 14.091 3.90916C15.4413 5.25932 16.1999 7.0907 16.1999 9.00023C16.1999 10.2641 15.8673 11.5057 15.2352 12.6002C14.6033 13.6948 13.6944 14.6037 12.5998 15.2356C11.5053 15.8676 10.2637 16.2003 8.99985 16.2003L8.99992 16.2002Z" fill="#14A800"/>
<path d="M8.05492 7.26289H9.85498C10.0936 7.26289 10.3225 7.35781 10.4913 7.52656C10.6602 7.69531 10.7549 7.92431 10.7549 8.16299H12.555C12.555 7.44687 12.2705 6.7601 11.7641 6.2537C11.2577 5.74744 10.5709 5.46298 9.85498 5.46298V3.66291H8.05492V5.46298C7.33879 5.46298 6.65203 5.74744 6.14577 6.2537C5.63937 6.7601 5.3549 7.44687 5.3549 8.16299V9.96305V9.9629C5.3549 10.679 5.63937 11.3658 6.14577 11.8722C6.65203 12.3785 7.33879 12.6629 8.05492 12.6629V14.463H9.85498V12.6629C10.5709 12.6629 11.2577 12.3785 11.7641 11.8722C12.2705 11.3658 12.555 10.679 12.555 9.9629H10.7549C10.7549 10.2017 10.6602 10.4306 10.4913 10.5993C10.3225 10.7681 10.0936 10.863 9.85498 10.863H8.05492C7.81626 10.863 7.58724 10.7681 7.41849 10.5993C7.24974 10.4306 7.15496 10.2017 7.15496 9.9629V8.16284V8.16299C7.15496 7.92433 7.24974 7.69531 7.41849 7.52656C7.58724 7.35781 7.81624 7.26289 8.05492 7.26289Z" fill="#14A800"/>
</svg>
