<svg width="50" height="50" viewBox="0 0 50 50" fill="none" xmlns="http://www.w3.org/2000/svg">
<path d="M32.2916 25.75C32.7058 25.75 33.0416 25.4142 33.0416 25C33.0416 24.5858 32.7058 24.25 32.2916 24.25V25.75ZM17.7083 24.25C17.294 24.25 16.9583 24.5858 16.9583 25C16.9583 25.4142 17.294 25.75 17.7083 25.75V24.25ZM32.2916 24.25H17.7083V25.75H32.2916V24.25Z" fill="#160042"/>
<path d="M24.25 32.2916C24.25 32.7059 24.5858 33.0416 25 33.0416C25.4142 33.0416 25.75 32.7059 25.75 32.2916H24.25ZM25.75 17.7083C25.75 17.2941 25.4142 16.9583 25 16.9583C24.5858 16.9583 24.25 17.2941 24.25 17.7083H25.75ZM25.75 32.2916V17.7083H24.25V32.2916H25.75Z" fill="#160042"/>
</svg>
