<svg width="724" height="1080" viewBox="0 0 724 1080" fill="none" xmlns="http://www.w3.org/2000/svg">
<g opacity="0.5">
<path d="M1546.47 0H1541.3C1626.5 51.6143 1720.7 86.6281 1818.93 103.191C1907.53 118.069 2001.33 118.76 2097.89 105.195V102.73C1998.7 116.696 1902.35 115.534 1811.59 99.2839C1717.94 82.4937 1628.12 48.8545 1546.47 0Z" fill="#F3F0EB"/>
<path d="M1573.62 0L1574.48 0.480891L1574.88 0.701299C1727.55 85.3781 1908.38 116.065 2097.84 89.4657V86.9711C2054.48 93.1226 2010.74 96.2327 1966.94 96.2783C1827.27 96.2783 1695.14 63.708 1579.09 0H1573.62Z" fill="#F3F0EB"/>
<path d="M1485.75 0H1481C1519.85 26.7943 1560.92 50.2035 1603.77 69.9696C1657.57 94.6613 1713.86 113.488 1771.69 126.124C1829.41 138.725 1888.25 145.475 1947.33 146.271H1948.33C1998.35 146.818 2048.34 143.634 2097.89 136.743V134.249C2046.78 141.415 1995.2 144.601 1943.6 143.776C1884.69 142.7 1826.03 135.675 1768.54 122.807C1710.92 109.916 1654.86 90.8511 1601.34 65.9421C1561.09 47.1149 1522.44 25.0623 1485.75 0Z" fill="#F3F0EB"/>
<path d="M1457.46 0H1452.9C1509.73 41.6127 1571.62 75.8331 1637.08 101.839C1708.48 130.021 1785.03 148.455 1864.57 156.62C1939.95 164.364 2018.45 162.952 2097.86 152.422V149.938C2017.23 160.647 1937.57 161.96 1860.99 153.675C1780.14 144.978 1702.45 125.623 1630.1 96.1881C1568.92 71.138 1510.96 38.845 1457.46 0Z" fill="#F3F0EB"/>
<path d="M1801.34 0H1790.38C1887.78 23.8842 1991.16 27.6612 2097.84 11.2108V8.77625C1995.44 24.6156 1895.7 21.6701 1801.34 0Z" fill="#F3F0EB"/>
<path d="M1515.57 0H1510.56C1598.14 56.6923 1695.86 95.9168 1798.33 115.514C1892.64 133.547 1993.42 135.411 2097.89 120.964V118.459C1991.17 133.257 1888.32 130.993 1792.18 111.717C1693.83 91.9894 1600.03 54.1034 1515.57 0Z" fill="#F3F0EB"/>
<path d="M1902.52 47.4078C1836.89 42.3614 1772.21 28.6505 1710.17 6.63228C1704.25 4.50835 1698.27 2.28423 1692.43 0H1685.42C1694.26 3.53655 1703.25 6.92282 1712.21 10.0787C1773.93 31.6637 1838.21 45.0724 1903.4 49.9625C1966.52 54.8516 2031.88 52.3269 2097.76 42.4686V40.0141C2031.6 49.9425 1965.89 52.4271 1902.52 47.4078Z" fill="#F3F0EB"/>
<path d="M1613.68 0H1607.89C1617.56 4.93915 1627.48 9.74805 1637.46 14.3265C1715.19 49.7993 1798.31 72.0101 1883.37 80.0382C1952.2 86.6304 2024.36 84.5365 2097.86 73.8167V71.3521C2021.72 82.4827 1947.18 84.3161 1876.13 76.8122C1793.02 68.1098 1711.9 45.798 1636.03 10.7699C1628.47 7.28349 1621 3.66679 1613.68 0Z" fill="#F3F0EB"/>
<path d="M1739.93 0H1731.8C1771.48 13.2289 1812.25 22.9508 1853.63 29.0538C1931.52 40.5451 2013.73 39.8037 2097.89 26.8798V24.4352C2011.44 37.7599 1927.14 38.1506 1847.3 25.6074C1810.9 19.87 1775 11.3083 1739.93 0Z" fill="#F3F0EB"/>
<path d="M1651.57 0H1645.29C1705.13 27.3609 1768.32 46.7325 1833.21 57.6167C1916.93 71.6427 2005.96 71.803 2097.86 58.1677V55.7132C2004.9 69.5388 1914.96 69.1681 1830.51 54.6111C1768.81 43.9756 1708.69 25.6281 1651.57 0Z" fill="#F3F0EB"/>
<path d="M1429.48 0H1424.93C1537.39 85.7288 1669.5 142.935 1807.23 165.506C1899.49 180.594 1997.27 181.536 2097.86 168.232V165.747C1994.25 179.442 1893.69 178.01 1798.96 161.479C1666.31 138.336 1538.56 82.5028 1429.48 0Z" fill="#F3F0EB"/>
<path d="M1408.11 146.361C1343.13 104.386 1283.04 55.2956 1228.95 0L1225.01 0C1280.46 56.9409 1342.23 107.361 1409.12 150.278C1477.07 193.804 1550.25 228.557 1626.92 253.71C1772.06 301.047 1930.48 315.033 2097.86 295.257V292.712C2015.47 302.45 1934.03 303.923 1855.78 297.1C1773.07 289.887 1692.99 273.306 1617.74 247.809C1543.98 222.683 1473.58 188.613 1408.11 146.361Z" fill="#F3F0EB"/>
<path d="M1205.82 1.46271C1205.36 0.981818 1204.89 0.460853 1204.44 0H1200.43C1202.1 1.76327 1203.77 3.51651 1205.44 5.26976C1291.69 95.2965 1390.43 167.49 1498.99 219.827C1610.55 273.637 1732.02 306.167 1860 316.516C1936.08 322.658 2016.1 320.874 2097.87 311.216V308.662C2012.11 318.8 1928.41 320.253 1849.11 312.98C1723.37 301.468 1604.06 268.357 1494.46 214.577C1387.83 162.24 1290.71 90.5377 1205.82 1.46271Z" fill="#F3F0EB"/>
<path d="M1402.35 0H1397.95C1415.41 14.026 1433.65 27.5109 1452.27 40.2545C1580.51 127.977 1732.05 180.164 1890.66 191.174C1956.89 195.773 2026.6 193.378 2097.86 184.071V181.556C2025.37 191.064 1954.33 193.358 1886.68 188.369C1730.02 176.757 1580.2 124.671 1453.39 37.7399C1435.93 25.7777 1418.76 13.0842 1402.35 0Z" fill="#F3F0EB"/>
<path d="M1158 0H1154.14C1189.86 39.8627 1228.42 77.0855 1269.52 111.376L1269.88 111.687C1318.8 152.39 1371.34 188.53 1426.85 219.657C1482.5 250.84 1540.95 276.734 1601.44 297C1728 339.318 1864.55 357.392 2007.3 350.729C2036.57 349.357 2067.04 346.832 2097.85 343.236V340.681C2062.91 344.758 2028.32 347.443 1995.03 348.696C1854.7 353.885 1720.47 334.92 1596.02 292.341C1477.07 251.636 1367.16 189.471 1269.35 107.559C1229.77 74.3439 1192.57 38.4032 1158 0Z" fill="#F3F0EB"/>
<path d="M1181.06 0H1177.18C1220.53 47.2163 1268.02 90.4677 1319.06 129.239C1416.78 203.417 1527.24 259.101 1644.99 293.544C1766.41 329.079 1896.76 342.484 2032.41 333.407C2054.14 331.955 2076.15 329.901 2097.87 327.306V324.741C2074.27 327.537 2050.31 329.751 2026.62 331.223C2001.24 332.806 1976.06 333.598 1951.07 333.598C1842.77 333.598 1738.44 318.75 1639.97 289.266C1524.07 254.565 1415.4 199.194 1319.2 125.823C1269.59 87.9729 1223.36 45.8728 1181.06 0Z" fill="#F3F0EB"/>
<path d="M1251.63 0H1247.62C1274.64 26.9426 1303.14 52.3622 1332.98 76.141C1418.77 144.447 1515.68 197.416 1621.01 233.563C1724.31 269.018 1833.1 287.432 1944.35 288.314C1995.67 288.591 2046.95 285.58 2097.87 279.297V276.752C2045.28 283.25 1992.31 286.242 1939.32 285.709C1829.05 284.316 1721.22 265.582 1618.82 229.996C1515.46 194.302 1418.96 141.219 1333.47 73.0352C1304.91 50.1631 1277.59 25.7833 1251.63 0Z" fill="#F3F0EB"/>
<path d="M1520.82 116.516C1460.06 84.0371 1403.07 44.9627 1350.88 0L1346.64 0C1400.16 46.3787 1458.74 86.5609 1521.28 119.782C1584.77 153.501 1652.14 179.352 1721.9 196.764C1839.51 225.968 1965.99 232.35 2097.86 215.719V213.195C1962.77 230.226 1833.38 223.083 1713.38 191.895C1646.46 174.422 1581.82 149.121 1520.82 116.516Z" fill="#F3F0EB"/>
<path d="M1376.05 0H1371.74C1381.47 8.12505 1391.45 16.1199 1401.44 23.8041C1536.15 127.346 1698.14 190.142 1869.75 205.38C1942.56 211.852 2019.3 209.999 2097.86 199.87V197.365C2016.14 207.925 1936.33 209.478 1860.63 201.984C1692.95 185.373 1534.57 122.837 1402.62 21.2493C1393.58 14.2865 1384.63 7.14323 1376.05 0Z" fill="#F3F0EB"/>
<path d="M1325.81 0H1321.68C1405.14 75.3896 1498 133.778 1597.64 173.551C1674.95 204.419 1757.94 224.836 1844.37 234.234C1926.19 243.14 2011.47 242.249 2097.83 231.559V229.034C2010.87 239.794 1925.05 240.616 1842.72 231.459C1755.66 221.781 1672.09 200.882 1594.26 169.344C1497.51 130.081 1407.17 73.1354 1325.81 0Z" fill="#F3F0EB"/>
<path d="M1542.05 163.533C1453.52 121.786 1371.97 66.6257 1300.28 0L1296.15 0C1369.2 68.3085 1452.57 124.673 1543.18 167.019C1634.4 209.719 1731.87 237.552 1831.88 249.462C1916.47 259.48 2005.95 258.869 2097.86 247.458V244.954C2002.51 256.776 1909.77 256.976 1822.2 245.645C1725.11 233.037 1630.58 205.332 1542.05 163.533Z" fill="#F3F0EB"/>
<path d="M1275.74 0H1271.66C1292.7 20.2976 1314.89 39.964 1337.79 58.5083C1420.02 125.036 1512.81 177.342 1612.3 213.265C1711.59 249.17 1815.97 269.002 1921.51 272.014H1922.51C1981.1 273.54 2039.73 270.656 2097.89 263.388V260.883C2033.88 268.748 1971.01 271.513 1911.01 269.098C1807.31 265.085 1704.9 244.713 1607.56 208.737C1510.01 172.746 1419.06 120.938 1338.35 55.3926C1316.73 37.8 1295.66 19.1655 1275.74 0Z" fill="#F3F0EB"/>
<path d="M759.797 1071.1C764.676 1073.99 769.635 1076.88 774.955 1079.96H782.128C770.246 1073.15 758.304 1066.12 746.562 1059.04C594.892 967.622 453.139 854.202 325.252 721.947C202.816 595.332 93.403 451.837 0 295.437V303.302C95.2764 461.745 207.053 606.864 332.235 734.53C462.106 867.026 605.962 980.265 759.797 1071.1Z" fill="#F3F0EB"/>
<path d="M903.062 1080C901.169 1079 899.285 1078.07 897.392 1077.08L896.771 1076.76C578 912.089 300.667 653.981 94.5551 330.021C95.557 333.978 96.5588 337.966 97.5607 341.933C303.372 661.555 579.303 916.768 895.528 1080H903.062Z" fill="#F3F0EB"/>
<path d="M1131.5 0C1212.04 92.0404 1304.33 168.392 1405.78 226.96C1467.7 262.619 1533.13 291.778 1601.04 313.971C1668.85 336.135 1738.68 351.525 1809.52 359.917C1901.14 370.807 1998.15 370.566 2097.86 359.205V356.66C1994.13 368.502 1893.28 368.242 1798.12 355.869C1727.6 346.72 1658.16 330.591 1590.83 307.72C1523.39 284.8 1458.5 254.977 1397.19 218.725C1300.73 161.559 1212.64 87.9729 1135.33 0H1131.5Z" fill="#F3F0EB"/>
<path d="M815.28 1080H822.643C736.686 1032.68 654.353 979.057 576.317 919.573C460.543 831.219 352.032 728.349 253.81 613.787C159.886 504.244 74.508 383.059 0 253.55V261.564C76.0609 392.807 163.302 515.404 259.33 625.989C358.955 740.762 468.938 843.562 586.236 931.645C659.088 986.295 735.617 1035.86 815.28 1080Z" fill="#F3F0EB"/>
<path d="M351.311 810.281C458.97 912.79 576.067 1003.53 699.205 1080H706.088C579.994 1002.16 460.383 909.394 350.509 804.199C242.465 700.495 144.784 586.51 58.849 463.859C60.1314 468.02 61.4204 472.178 62.7161 476.332C148 596.632 244.642 708.462 351.311 810.281Z" fill="#F3F0EB"/>
<path d="M438.272 781.187C565.968 899.416 706.007 999.932 854.512 1080H861.846C710.416 998.95 567.832 896.66 437.971 775.857C312.409 659.04 199.279 525.463 101.668 378.781C102.75 382.789 103.842 386.796 104.934 390.724C201.914 534.81 314.062 666.174 438.272 781.187Z" fill="#F3F0EB"/>
<path d="M736.594 1080H743.667C714.613 1062.77 685.61 1044.56 657.508 1025.9C526.074 938.508 402.545 833.954 290.328 715.074C182.849 601.213 85.1577 473.657 0 335.912V343.636C86.8508 483.105 186.515 612.033 296.219 726.846C409.979 845.856 535.131 950.31 668.237 1037.25C690.679 1051.95 713.692 1066.29 736.594 1080Z" fill="#F3F0EB"/>
<path d="M553.425 1080H560.167C523.189 1054.68 486.521 1027.84 451.055 1000.12C453.34 1003.52 455.684 1006.98 458.068 1010.49C489.136 1034.44 521.215 1057.82 553.425 1080Z" fill="#F3F0EB"/>
<path d="M2043.78 0C1994.99 4.61897 1945.86 4.61897 1897.06 0L1875.02 0C1937.04 7.85455 2001.33 7.85455 2066.56 0H2043.78Z" fill="#F3F0EB"/>
<path d="M1302.23 221.21C1359.67 260.857 1420.79 294.877 1484.75 322.798C1548.74 350.691 1615.24 372.43 1683.35 387.718C1812.91 416.772 1952.36 423.394 2097.89 407.344V404.76C1952.47 420.839 1813.03 414.187 1683.45 385.003C1615.29 369.646 1548.75 347.806 1484.75 319.782C1420.76 291.73 1359.63 257.558 1302.21 217.743C1215.9 157.842 1137.11 84.5866 1067.92 0H1064.17C1134.32 86.1596 1214.41 160.537 1302.23 221.21Z" fill="#F3F0EB"/>
<path d="M1122.41 1080H1131.43C963.79 1014.46 806.404 925.249 664.06 815.089C529.651 711.107 406.803 586.887 298.863 445.826C195.672 310.986 106.197 160.988 33.0011 0H28.7132C103.061 163.643 194.17 315.945 299.555 452.708C409.919 595.974 535.622 721.737 673.187 826.47L673.708 826.871C811.019 931.334 961.988 1016.5 1122.41 1080Z" fill="#F3F0EB"/>
<path d="M870.793 800.342C585.494 613.206 349.557 336.463 188.429 0H184.341C347.964 342.093 588.45 622.232 879.889 810.2C1043.87 915.966 1224.53 993.61 1416.79 1040.97C1485.57 1057.85 1555.24 1070.87 1625.48 1079.96H1649.87C1567.43 1070.29 1485.71 1055.23 1405.24 1034.88C1213.69 986.236 1033.91 907.32 870.793 800.342Z" fill="#F3F0EB"/>
<path d="M1288.63 1080H1299.54C1292.6 1077.92 1285.57 1075.76 1278.56 1073.57C1093.61 1015.72 919.048 928.812 761.41 816.111C614.137 710.866 480.149 581.757 362.972 432.331C364.034 435.627 365.086 438.923 366.158 442.219C485.118 592.387 621.2 721.737 770.627 826.821C928.846 938.03 1103.68 1023.48 1288.63 1080Z" fill="#F3F0EB"/>
<path d="M1353.56 1080H1365.67C1335.25 1071.99 1304.67 1062.97 1274.63 1053.39C1090.49 994.39 916.975 906.295 760.679 792.447C624.957 693.534 500.727 573.763 391.425 436.408C286.991 305.175 196.464 158.343 122.367 0H118.219C193.358 160.878 285.529 309.874 392.086 442.91C503.763 582.358 630.778 703.533 769.605 803.067C926.885 915.807 1101.2 1002.63 1285.94 1060.24C1308.13 1067.18 1330.88 1073.81 1353.56 1080Z" fill="#F3F0EB"/>
<path d="M1229.38 1080H1239.45C1091.17 1030.71 949.734 962.84 818.516 878.006L817.945 877.625C517.779 682.975 269.128 394.821 98.5425 43.9414C98.9833 47.7618 99.4375 51.5722 99.905 55.3725C273.006 407.094 524.852 695.077 828.254 888.235C953.785 968.016 1088.46 1032.4 1229.38 1080Z" fill="#F3F0EB"/>
<path d="M1515.17 1080H1532.39C1418.11 1059.79 1307.24 1029.5 1202.7 989.903C1027.37 923.49 862.517 828.154 712.79 706.518C568.593 589.401 441.067 450.234 333.618 292.752L336.022 302.62C445.285 461.054 574.945 600.712 721.406 717.749C872.055 838.132 1037.63 932.146 1213.53 997.267C1309.36 1032.77 1410.85 1060.59 1515.17 1080Z" fill="#F3F0EB"/>
<path d="M2097.89 1070.53V1067.64C2029.55 1073.69 1962.12 1076.69 1895.6 1076.65C1752.6 1076.65 1614.48 1062.63 1483 1034.78C1288.68 993.61 1105.77 921.857 939.299 821.521C783.341 727.587 640.626 607.224 515.124 463.859C395.232 326.805 292.662 170.766 210.259 0H206.252C289.596 172.98 393.599 330.893 515.455 469.369C642.83 614.187 787.749 735.362 946.132 829.456C1112.92 928.56 1295.97 999.21 1490.14 1039.45C1680.73 1078.93 1885.17 1089.39 2097.89 1070.53Z" fill="#F3F0EB"/>
<path d="M681.191 855.033C803.086 945.166 935.143 1020.67 1074.65 1080H1083.07C940.681 1020.06 806.006 943.249 681.933 851.206C557.691 759.034 444.51 652.822 344.638 534.68C345.907 538.086 347.186 541.489 348.475 544.889C447.274 660.54 558.896 764.589 681.191 855.033Z" fill="#F3F0EB"/>
<path d="M1026.56 1080H1034.86C925.979 1031.83 821.816 973.641 723.71 906.188C431.459 705.046 187.948 415.179 19.1955 67.6252C19.7265 71.6928 20.2575 75.7803 20.7985 79.8178C192.036 427.952 438.492 717.489 733.548 917.158C826.294 979.863 924.337 1034.35 1026.56 1080Z" fill="#F3F0EB"/>
<path d="M1174.44 1080H1183.88C1066.47 1037.47 953.631 983.258 847.049 918.19L845.526 917.259C540.11 730.072 284.276 448.531 105.395 102.87C105.936 106.658 106.497 110.495 107.068 114.352C288.404 460.563 547.213 741.653 855.454 927.267C956.724 988.134 1063.53 1039.27 1174.44 1080Z" fill="#F3F0EB"/>
<path d="M981.608 1080H989.623C952.494 1062.72 915.485 1044.03 879.629 1024.44C719.643 936.975 570.697 825.489 436.809 693.043C438.402 696.339 439.985 699.626 441.558 702.852C577.319 835.688 728.409 947.204 890.649 1034.26C920.485 1050.24 951.081 1065.62 981.608 1080Z" fill="#F3F0EB"/>
<path d="M937.817 1080H945.551C627.702 924.191 349.547 676.493 140.61 363.163C141.612 367.06 142.684 370.927 143.716 374.724C350.649 681.592 625.238 925.434 937.817 1080Z" fill="#F3F0EB"/>
<path d="M1431.09 1080H1440.67C1282.84 1044.27 1132.1 988.831 992.378 915.075C828.795 828.705 677.444 715.174 542.545 577.61C414.177 446.737 302.51 296.088 210.55 129.78C211.104 133.327 211.665 136.867 212.233 140.4C305.836 307.81 419.537 459.18 550.179 590.303C686.05 726.676 838.212 838.964 1002.43 924.041C1135.26 992.839 1279.5 1045.29 1431.09 1080Z" fill="#F3F0EB"/>
<path d="M486.27 0C593.148 197.085 728.84 365.076 889.577 499.325C963.242 560.811 1042.5 615.263 1126.33 661.966C1210.14 708.656 1298.19 747.319 1389.28 777.44C1487.18 809.75 1590.91 832.762 1697.55 845.856C1799.93 858.42 1906.17 861.996 2013.32 856.466C2041.42 854.993 2069.85 852.909 2097.84 850.285V847.509C2067.61 850.375 2036.93 852.569 2006.68 854.031C1899.6 859.181 1793.43 855.194 1691.09 842.18C1584.55 828.634 1481 805.111 1383.29 772.32C1292.27 741.7 1204.36 702.523 1120.74 655.313C1037.11 608.085 958.107 553.12 884.748 491.14C727.708 358.394 594.902 193.148 490.027 0H486.27Z" fill="#F3F0EB"/>
<path d="M468.307 0H464.51C529.14 120.553 605.772 231.96 692.132 331.133L693.584 332.796C754.802 402.927 821.9 467.699 894.146 526.405C966.977 585.555 1045.03 637.97 1127.34 683.005C1214.21 730.272 1305.44 769.073 1399.74 798.869C1494.05 828.64 1590.87 849.786 1689 862.046C1819.02 878.357 1956.57 880.02 2097.89 866.986V864.19C1954.15 877.425 1814.45 875.461 1682.64 858.349C1584.55 845.656 1487.82 824.047 1393.65 793.79C1299.48 763.516 1208.46 724.225 1121.84 676.463C1039.67 630.906 961.819 577.967 889.247 518.3C816.688 458.629 749.405 392.817 688.144 321.596C604.95 224.886 530.983 116.706 468.307 0Z" fill="#F3F0EB"/>
<path d="M446.918 0H443.081C476.999 63.8888 514.568 125.772 555.599 185.343C664.16 342.634 793.63 477.184 940.432 585.184C1017.32 641.67 1099.23 690.969 1185.14 732.456C1271.06 773.922 1360.58 807.479 1452.58 832.712C1652.24 887.423 1869.35 904.575 2097.86 883.706V880.901C2035.19 886.625 1973.41 889.484 1912.52 889.477C1749.3 889.477 1593.19 868.909 1446.51 827.953C1354.57 802.259 1265.17 768.215 1179.43 726.245C1093.7 684.263 1012.01 634.475 935.402 577.509C789.031 468.498 660.153 332.977 552.353 174.683C514.076 118.404 478.879 60.0908 446.918 0Z" fill="#F3F0EB"/>
<path d="M404.359 0H400.512C465.632 125.232 543.206 241.357 631.018 345.109L632.782 347.193C756.791 493.173 900.708 614.197 1060.52 706.859C1145.56 756.062 1234.98 797.268 1327.64 829.947C1420.29 862.606 1515.66 886.983 1612.62 902.792C1765.79 927.838 1929.04 932.727 2097.86 917.379V914.554C1924.91 930.293 1757.8 924.692 1601.11 897.913C1504.5 881.419 1409.55 856.368 1317.37 823.054C1225.2 789.718 1136.32 747.902 1051.88 698.143C892.914 604.299 750.019 482.233 627.161 335.341C542.545 234.194 467.596 121.385 404.359 0Z" fill="#F3F0EB"/>
<path d="M425.618 0H421.781C431.639 18.7447 441.948 37.5896 452.428 56.0438C546.131 220.869 662.547 367.17 798.479 490.909C939.259 619.086 1096.83 719.112 1266.84 788.21C1394.42 840.086 1532.06 875.712 1675.92 894.096C1811.52 911.418 1953.44 913.572 2097.92 900.508V897.662C1952.47 910.837 1809.48 908.502 1672.92 890.74C1527.96 871.875 1389.39 835.467 1261.06 782.539C1091.21 712.469 933.97 611.402 793.71 482.133C658.369 357.472 542.695 210.249 449.833 44.5725C441.618 29.8853 433.473 14.8976 425.618 0Z" fill="#F3F0EB"/>
<path d="M553.345 0H549.538C631.169 144.828 730.743 274.609 845.616 385.774C965.839 502.12 1100.6 595.803 1246.14 664.22C1374.86 724.732 1515.16 766.74 1663.14 789.091C1802.5 810.13 1948.75 813.817 2097.86 800.031V797.276C1947.85 811.182 1800.64 807.295 1660.36 785.785C1511.4 762.913 1370.28 720.063 1240.93 658.419C1097.56 590.093 964.767 497.121 846.197 381.977C732.777 271.793 634.234 143.265 553.345 0Z" fill="#F3F0EB"/>
<path d="M595.843 0H592.096C670.151 135.25 764.275 256.695 871.875 361.069C984.623 470.441 1110.67 559.436 1246.5 625.649L1250.4 627.552C1377.44 688.956 1516.13 731.745 1662.69 754.788C1802.17 776.698 1948.58 780.736 2097.89 766.81V764.055C1947.61 778.081 1800.33 773.843 1660 751.472C1510.98 727.698 1370.15 683.426 1241.45 619.868C1107.74 553.836 983.621 465.532 872.536 357.382C766.259 253.96 673.187 133.738 595.843 0Z" fill="#F3F0EB"/>
<path d="M574.314 0H570.567C622.622 92.0911 683.16 179.122 751.391 259.961C812.02 331.606 879.018 397.607 951.562 457.157C1024.1 516.681 1102.18 569.111 1184.73 613.727C1271.9 660.526 1363.59 698.344 1458.4 726.596C1553.21 754.835 1650.5 773.983 1748.94 783.781C1860.27 794.942 1977.66 794.802 2097.84 783.491V780.736C1975.39 792.287 1855.92 792.147 1742.74 780.315C1644.37 770.095 1547.2 750.489 1452.56 721.767C1357.92 693.035 1266.45 654.74 1179.57 607.475C1097.18 562.354 1019.31 509.413 947.054 449.382C874.795 389.342 808.133 322.87 747.885 250.784C682.632 172.558 624.541 88.6257 574.314 0Z" fill="#F3F0EB"/>
<path d="M510.766 0H506.939C593.619 157.672 701.299 298.272 826.971 417.954C958.214 542.905 1105.65 641.608 1265.24 711.337L1269.62 713.241C1395.28 767.642 1531.34 805.261 1674.07 825.078C1810.14 843.963 1952.71 846.768 2097.85 833.423V830.638C1950.97 844.133 1806.75 841.047 1669.17 821.451C1523.05 800.643 1384.04 761.109 1256.02 703.954C1099.49 634.054 954.768 536.043 826.03 412.644C702.491 294.285 596.435 155.458 510.766 0Z" fill="#F3F0EB"/>
<path d="M531.915 0H528.148C559.019 55.6977 592.836 109.711 629.456 161.81C682.994 237.97 742.846 309.491 808.377 375.616C873.911 441.707 945.294 501.729 1021.65 554.948C1100.4 609.596 1184.24 656.495 1272.03 694.987C1359.8 733.455 1451.02 763.522 1544.47 784.783C1717.22 824.086 1903.39 834.876 2097.86 816.763V813.987C2036.93 819.678 1976.86 822.523 1917.65 822.523C1785.88 822.523 1658.95 808.497 1538.55 780.445C1445.17 758.747 1354.07 728.22 1266.48 689.276C1178.87 650.307 1095.25 602.928 1016.8 547.804C940.648 494.051 869.519 433.509 804.289 366.919C739.072 300.31 679.572 228.334 626.42 151.751C592.547 102.981 560.758 51.9262 531.915 0Z" fill="#F3F0EB"/>
<path d="M383.15 0H379.312C466.364 169.043 574.324 319.983 700.217 448.661C766.184 516.098 837.749 577.823 914.143 633.173C990.549 688.499 1071.68 736.989 1156.59 778.081L1157.16 778.371C1247.63 821.847 1341.94 856.842 1438.87 882.905C1536.02 909.006 1635.24 926.648 1735.42 935.633C1851.31 946.102 1973.25 945.651 2097.9 934.32V931.485C1968.87 943.217 1842.83 943.247 1723.29 931.585C1623.45 921.9 1524.64 903.57 1427.97 876.804C1331.3 850.013 1237.32 814.287 1147.26 770.086C1062.74 728.367 982.055 679.28 906.148 623.394C830.26 567.493 759.239 505.269 693.845 437.39C572.31 311.276 467.786 164.124 383.15 0Z" fill="#F3F0EB"/>
<path d="M253.77 0H249.763C332.917 170.426 435.967 324.882 556.1 459.12C683.265 601.113 828.775 719.793 988.721 811.883C1157.45 909.063 1342.7 976.789 1539.33 1013.26C1715.09 1045.86 1903 1053.58 2097.86 1036.22V1033.32C1900.5 1050.89 1710.27 1042.67 1532.56 1008.91C1336.02 971.559 1150.96 902.792 982.539 804.53C822.774 711.317 677.675 591.515 551.241 448.43C434.905 316.807 334.83 165.947 253.77 0Z" fill="#F3F0EB"/>
<path d="M626.49 1080H633.263C476.597 977.663 333.6 855.793 207.725 717.328C209.488 721.246 211.271 725.153 213.024 729C335.876 862.57 474.748 980.462 626.49 1080Z" fill="#F3F0EB"/>
<path d="M482.974 396.414C386.566 277.133 302.23 143.766 232.28 0H228.273C299.334 146.201 385.223 281.652 483.576 402.596C586.676 529.38 703.382 640.035 830.458 731.555L830.989 731.935C988.328 845.121 1163.62 930.977 1349.5 985.896C1547.47 1044.56 1760.81 1069.8 1983.61 1060.92C2021.58 1059.39 2060.02 1056.92 2097.9 1053.43V1050.51C2055.54 1054.3 2012.56 1057 1970.13 1058.52C1748.06 1066 1535.52 1039.37 1338.42 979.374C1152.95 923.034 978.335 835.774 821.932 721.276C697.832 630.447 583.791 521.145 482.974 396.414Z" fill="#F3F0EB"/>
<path d="M613.216 0C711.988 169.985 834.545 315.434 977.51 432.341L979.684 434.124C1050.51 491.769 1126.69 542.52 1207.17 585.685C1288.48 629.278 1373.83 664.877 1462.02 691.981C1556.9 721.035 1657.38 740.932 1760.66 750.951C1859.45 760.538 1961.93 761.26 2065.22 753.095C2075.98 752.253 2086.93 751.281 2097.8 750.219V747.494C2084.89 748.747 2071.76 749.879 2058.88 750.87C1955.69 758.675 1853.34 757.573 1754.69 747.574C1651.58 737.145 1551.31 716.867 1456.65 687.313C1368.58 659.784 1283.41 623.744 1202.34 579.703C1121.26 535.651 1044.63 483.865 973.523 425.067C833.874 309.573 713.902 166.568 616.932 0H613.216Z" fill="#F3F0EB"/>
<path d="M663.429 1080H670.241C532.722 992.956 405.483 890.645 290.949 775.015C292.792 778.722 294.656 782.439 296.509 786.116C407.754 897.141 530.789 995.687 663.429 1080Z" fill="#F3F0EB"/>
<path d="M590.243 1080H596.965C466.43 992.558 345.573 891.469 236.438 778.442C238.328 782.302 240.225 786.153 242.128 789.993C347.94 898.316 464.589 995.494 590.243 1080Z" fill="#F3F0EB"/>
<path d="M339.929 0H336.022C368.117 63.4395 403.545 125.137 442.159 184.832C545.47 344.278 670.722 484.467 814.428 601.484C962.192 721.807 1125.55 814.308 1299.96 876.423C1423.89 920.565 1556.54 950.56 1694.25 965.458C1824.2 979.544 1959.99 980.426 2097.86 968.083V965.257C1958.18 977.771 1820.59 976.649 1688.93 961.921C1549.37 946.302 1415.04 915.205 1289.69 869.49C1115.95 806.123 953.396 712.369 806.564 590.854C663.919 472.796 539.81 331.724 437.691 171.558C402.405 116.215 369.514 58.5083 339.929 0Z" fill="#F3F0EB"/>
<path d="M361.81 0H357.943C453.289 186.886 573.342 351.531 714.844 489.426L715.144 489.737C782.788 555.633 855.891 615.681 933.669 669.239C1011.57 722.857 1094.01 769.558 1180.06 808.808C1272.37 850.646 1368.35 883.888 1466.77 908.112C1565.18 932.315 1665.49 948.095 1766.58 955.279C1872.78 962.893 1984.23 961.521 2097.86 951.211V948.376C1979.92 959.086 1864.32 960.118 1754.23 951.442C1653.46 943.584 1553.55 927.117 1455.59 902.221C1357.62 877.302 1262.16 843.399 1170.43 800.943C1084.77 761.056 1002.77 713.748 925.364 659.561C847.962 605.359 775.291 544.697 708.131 478.226C571.228 342.715 454.722 181.837 361.81 0Z" fill="#F3F0EB"/>
<path d="M318.67 0H314.773C398.288 166.769 501.569 317.237 621.781 447.258C751.612 587.698 900.427 703.483 1064.11 791.466L1067.62 793.349C1154.03 839.347 1244.33 877.623 1337.48 907.731C1431.89 938.263 1528.72 960.718 1626.93 974.855C1776.21 996.375 1934.63 999.902 2097.89 985.164V982.319C1930.32 997.347 1767.88 993.279 1615.11 970.157C1517.22 955.36 1420.76 932.251 1326.79 901.079C1232.82 869.87 1141.83 830.306 1054.92 782.86C892.112 693.755 744.258 576.868 615.45 435.416C499.605 308.181 399.74 161.679 318.67 0Z" fill="#F3F0EB"/>
<path d="M275.761 0H271.753C329.23 116.576 396.564 226.359 471.894 326.334C550.479 430.627 638.643 525.363 733.919 607.856C879.368 733.829 1042.77 833.273 1219.59 903.283C1406.59 977.42 1609.54 1019 1822.79 1026.93C1911.48 1030.24 2004.01 1027.63 2097.83 1019.19V1016.31C1999.46 1025.14 1902.62 1027.55 1809.99 1023.5C1597.55 1014.18 1395.44 971.208 1209.31 895.799C1033.26 824.467 870.783 723.88 726.415 596.825C633.834 515.384 548.085 422.292 471.583 320.113C398.007 221.921 332.125 114.212 275.761 0Z" fill="#F3F0EB"/>
<path d="M497.772 323.239C422.372 224.335 354.967 115.594 297.391 0H293.463C352.142 117.948 421 228.744 498.142 329.33C578.692 434.364 669.079 529.28 766.79 611.452L768.894 613.226C841.44 674.01 918.955 728.605 1000.62 776.438C1083.09 824.71 1169.54 865.826 1259.03 899.335C1448.44 970.147 1653.76 1007.73 1869.39 1011.04C1945.64 1012.06 2021.88 1009.1 2097.81 1002.17V999.311C2017.58 1006.63 1936.99 1009.49 1856.44 1007.87C1641.58 1003.15 1437.1 964.185 1248.65 892.072C1159.51 857.914 1073.47 816.167 991.476 767.291C909.486 718.409 831.779 662.677 759.186 600.692C664.23 519.512 576.227 426.169 497.772 323.239Z" fill="#F3F0EB"/>
<path d="M825.138 0C919.883 141.963 1034.42 261.554 1165.56 355.458C1242.7 410.609 1325.84 456.861 1413.38 493.334C1500.9 529.82 1592.18 556.557 1685.56 573.061C1815.43 596.014 1954.15 600.302 2097.89 585.795V583.08C1952.2 597.797 1811.67 593.098 1680.17 569.264C1586.94 552.329 1495.87 525.155 1408.61 488.234C1321.32 451.299 1238.49 404.606 1161.7 349.046C1033.77 256.335 921.797 138.907 828.855 0H825.138Z" fill="#F3F0EB"/>
<path d="M954.167 0C1007.95 73.0991 1069.32 140.292 1137.27 200.451C1201.68 257.239 1272.07 306.861 1347.2 348.445C1422.33 390.017 1501.81 423.159 1584.21 447.268C1742.83 493.544 1915.65 507.279 2097.86 488.104V485.479C1913.86 504.855 1739.53 490.578 1579.7 443.06C1497.46 418.544 1418.19 384.994 1343.34 343.025C1268.48 301.047 1198.41 251.058 1134.36 193.939C1069.06 135.494 1009.93 70.5075 957.884 0L954.167 0Z" fill="#F3F0EB"/>
<path d="M932.507 0C956.551 33.3017 982.489 65.8119 1009.53 96.669C1069.43 165.142 1136.62 226.88 1209.9 280.79C1283.16 334.704 1362.4 379.975 1446.05 415.7C1545.79 458.128 1653.65 486.982 1766.64 501.459C1873.14 515.104 1984.58 516.066 2097.87 504.314V501.689C1983.8 513.531 1871.62 512.449 1764.42 498.453C1650.6 483.606 1542.01 454.111 1441.74 410.811C1341.78 367.681 1247.31 309.653 1161 238.442C1078.5 170.315 1003.3 90.167 937.496 0H932.507Z" fill="#F3F0EB"/>
<path d="M914.694 0H910.987C953.698 60.1117 1001.28 116.61 1053.25 168.923C1117.95 233.881 1189.68 291.444 1267.11 340.551C1344.48 389.667 1427.26 429.699 1513.8 459.852C1604.83 491.44 1702.08 512.449 1802.85 522.267C1898.02 531.544 1997.21 530.973 2097.84 520.574V517.959C1996.42 528.449 1896.4 528.919 1800.55 519.362C1698.9 509.213 1600.88 487.663 1509.21 455.303C1422.82 424.683 1340.26 384.187 1263.16 334.62C1186.05 285.081 1114.68 227.125 1050.38 161.82C1000.96 111.537 955.589 57.4285 914.694 0Z" fill="#F3F0EB"/>
<path d="M889.417 0C951.763 89.105 1023.24 169.314 1101.9 238.442C1168.2 296.696 1240.57 347.656 1317.76 390.443C1394.95 433.228 1476.59 467.46 1561.21 492.532C1726.76 541.463 1907.32 556.35 2097.92 536.784V534.159C2044.82 539.672 1991.48 542.458 1938.1 542.505C1806.24 542.505 1680.23 524.912 1561.86 489.847C1476.41 464.48 1394.03 429.745 1316.21 386.275C1238.38 342.808 1165.51 291.008 1098.88 231.789C1022.89 164.304 953.656 86.2798 893.114 0H889.417Z" fill="#F3F0EB"/>
<path d="M979.694 0H975.957C1014.75 51.7017 1057.4 100.388 1103.55 145.64C1235.35 274.548 1396.1 371.237 1568.52 425.237C1731.32 476.222 1909.41 491.911 2097.89 471.954V469.329C2046.17 474.871 1994.19 477.674 1942.18 477.725C1810.79 477.725 1685.57 459.19 1568.28 422.272C1395.74 367.971 1234.92 270.761 1103.19 141.161C1058.63 97.1955 1017.35 50.0148 979.694 0Z" fill="#F3F0EB"/>
<path d="M1090.66 0H1086.89C1174.05 104.734 1275.31 190.653 1387.84 255.413C1591.95 372.881 1837.47 419.847 2097.89 391.275V388.72C2049.18 394.11 2000.21 396.829 1951.2 396.865C1745.62 396.865 1553.16 347.774 1387.85 252.197C1276.83 188.018 1176.86 103.191 1090.66 0Z" fill="#F3F0EB"/>
<path d="M1045.53 0H1041.76C1067.62 32.4034 1095.09 63.4804 1124.08 93.1124C1252.67 224.355 1410.79 322.537 1581.35 377.199C1740.08 428.013 1913.85 443.612 2097.89 423.544V420.94C2047.18 426.511 1996.22 429.331 1945.21 429.385C1817.2 429.385 1695.3 410.971 1581.24 374.283C1410.52 319.361 1252.39 220.649 1123.92 88.7544C1096.48 60.5722 1070.11 30.6968 1045.53 0Z" fill="#F3F0EB"/>
<path d="M868.859 0C928.72 86.7406 996.846 165.376 1071.38 233.773C1149.59 305.516 1235.36 366.429 1326.34 414.818C1549.87 533.678 1816.65 581.477 2097.89 553.024V550.359C2045.96 555.657 1993.79 558.332 1941.6 558.374C1716.5 558.374 1504.85 507.75 1322.21 409.328C1233.1 361.309 1149.03 301.188 1072.34 230.637C998.85 163.062 931.665 85.4683 872.546 0H868.859Z" fill="#F3F0EB"/>
<path d="M1024.25 0H1020.46C1117.56 124.31 1232.47 224.856 1362.03 298.853C1573.58 419.697 1828.02 468.357 2097.89 439.584V436.979C2048.27 442.319 1998.41 445.011 1948.51 445.044C1734.42 445.044 1533.97 394.25 1361.86 295.477C1233.88 222.041 1120.3 122.637 1024.25 0Z" fill="#F3F0EB"/>
<path d="M1001.49 0H997.738C1040.62 55.988 1088.14 108.269 1139.79 156.289C1200.99 213.034 1268.12 263.018 1340.03 305.375C1411.93 347.737 1488.29 382.009 1567.73 407.565C1650.96 434.264 1739.44 451.757 1830.73 459.571C1917.37 466.985 2007.25 465.753 2097.89 455.914V453.309H2097.71C2005.78 463.328 1914.56 464.41 1826.56 456.535C1734.2 448.27 1644.77 430.046 1560.72 402.385C1482.3 376.499 1406.95 342.076 1336.04 299.735C1265.16 257.398 1198.99 207.615 1138.68 151.23C1088.91 104.635 1043.03 54.0571 1001.49 0Z" fill="#F3F0EB"/>
<path d="M808.407 0H803.839C849.104 69.1149 900.177 134.247 956.501 194.691L958.074 196.364C1020.33 262.79 1089.22 322.678 1163.65 375.095C1238.72 427.932 1319.27 472.51 1403.9 508.051C1510.22 552.533 1625.09 582.889 1745.32 598.218C1858.65 612.695 1977.25 613.967 2097.83 601.995V599.32C1976.4 611.342 1857 609.97 1742.92 595.122C1621.79 579.353 1506.16 548.335 1399.28 502.951C1164.8 403.387 960.489 229.425 808.407 0Z" fill="#F3F0EB"/>
<path d="M701.97 0H698.293C762.903 105.275 838.052 201.213 921.707 285.168C1009.38 373.181 1106.55 448.16 1210.52 508.031C1342.16 583.821 1486.29 637.01 1638.92 666.124C1783.18 693.625 1937.63 699.686 2097.93 684.157V681.452C1935.62 697.231 1779.34 690.769 1633.42 662.246C1481.14 632.471 1337.32 578.571 1206.09 502.06C1104.06 442.58 1008.66 368.432 922.568 281.652C840.036 198.638 765.858 103.882 701.97 0Z" fill="#F3F0EB"/>
<path d="M740.131 0C813.276 116.426 899.666 220.248 996.746 308.571C1063.88 369.624 1136.99 423.757 1214.98 470.151C1292.95 516.546 1375.5 554.785 1461.31 584.262C1552.91 615.66 1650.29 637.551 1750.76 649.312C1846.94 660.573 1946.84 662.667 2047.58 655.534C2064.27 654.342 2081.18 652.889 2097.86 651.226V648.541C2081.23 650.224 2064.36 651.677 2047.7 652.849C1946.84 659.992 1846.85 657.858 1750.51 646.507C1649.93 634.655 1552.41 612.634 1460.7 581.076C1374.78 551.408 1292.16 512.935 1214.15 466.273C1136.13 419.589 1063.02 365.139 995.954 303.753C900.608 216.491 815.781 114.302 743.817 0H740.131Z" fill="#F3F0EB"/>
<path d="M718.991 0C798.859 128.979 894.366 242.589 1002.86 337.735C1071.39 397.803 1145.78 450.834 1224.92 496.029C1304.05 541.226 1387.59 578.236 1474.23 606.483C1567.04 636.669 1665.58 657.307 1767.11 667.827C1864.2 677.845 1964.95 678.777 2066.55 670.502C2076.96 669.65 2087.48 668.698 2097.84 667.666V664.961C2085.39 666.214 2072.8 667.336 2060.35 668.308C1958.92 676.202 1858.34 674.91 1761.41 664.45C1660.09 653.52 1561.79 632.451 1469.24 601.834C1382.75 573.162 1299.41 535.722 1220.53 490.098C1141.65 444.479 1067.55 391.049 999.351 330.612C893.835 237.009 800.743 125.783 722.658 0H718.991Z" fill="#F3F0EB"/>
<path d="M676.914 0C755.399 129.239 849.413 244.373 956.431 342.344C1068.56 445.034 1193.34 527.276 1327.32 586.797L1331.45 588.63C1447.56 639.725 1573.38 674.98 1705.51 693.434C1831.49 711.027 1963.51 713.471 2097.89 700.587V697.912C1962.63 710.846 1829.71 708.312 1702.89 690.278C1568.24 671.143 1440.21 634.525 1322.33 581.417C1190.42 521.967 1067.53 440.365 957.062 338.847C851.427 241.778 758.404 127.767 680.66 0H676.914Z" fill="#F3F0EB"/>
<path d="M888.646 298.032C802.486 210.229 725.473 109.964 659.591 0H655.855C722.468 111.386 800.482 212.864 887.834 301.629C979.364 394.731 1081.09 473.717 1190.2 536.544L1193.45 538.407C1326.11 614.308 1471.16 667.857 1624.66 697.602C1773.28 726.395 1932.46 732.947 2097.89 717.088V714.383C1932.58 730.252 1773.47 723.65 1624.9 694.777C1468.24 664.33 1320.46 609.028 1185.66 530.472C1078.5 467.977 978.572 389.792 888.646 298.032Z" fill="#F3F0EB"/>
<path d="M761.67 0C859.472 153.464 978.913 282.784 1116.7 384.362C1185.7 435.179 1259.52 479.103 1337.11 515.505C1414.69 551.897 1495.63 580.658 1578.78 601.384C1740.22 641.578 1914.84 652.809 2097.89 634.766V632.091C2041.52 637.654 1986 640.433 1931.33 640.426C1806.69 640.426 1686.93 625.979 1573.66 597.206C1490.65 576.08 1409.89 546.915 1332.54 510.125C1255.17 473.323 1181.61 429.004 1112.91 377.81C978.312 277.414 861.385 150.278 765.417 0H761.67Z" fill="#F3F0EB"/>
<path d="M846.568 0C917.279 104.483 999.691 197.135 1091.53 275.43C1159.06 333.011 1232.49 383.293 1310.6 425.438C1388.69 467.574 1471.06 501.253 1556.3 525.904C1723.61 574.173 1905.76 588.78 2097.82 569.334V566.709C1905.95 586.155 1723.96 571.518 1556.82 523.199C1470.73 498.249 1387.58 464.064 1308.83 421.24C1230.08 378.414 1156.13 327.292 1088.25 268.748C999.28 191.935 919.192 101.518 850.285 0H846.568Z" fill="#F3F0EB"/>
<path d="M1108.82 0C1168.39 69.8594 1235.21 131.594 1307.41 183.49C1363.65 223.869 1423.71 258.627 1486.74 287.262C1549.78 315.888 1615.47 338.283 1682.87 354.126C1812.77 384.632 1952.37 391.755 2097.82 375.295V372.75C1950.55 389.541 1809.09 381.887 1677.18 350.018C1543.91 317.935 1418.2 260.109 1307.12 179.793C1235.42 127.755 1170.14 67.4035 1112.64 0L1108.82 0Z" fill="#F3F0EB"/>
<path d="M638.282 0H634.585C693.805 100.466 762.292 193.248 838.142 275.791C917.499 362.151 1005.45 437.901 1099.69 500.918C1171.43 548.848 1247.44 590.059 1326.76 624.026C1406.07 657.975 1488.29 684.689 1572.41 703.843C1736.46 741.172 1913.23 751.181 2097.84 733.609V730.883C2039.04 736.494 1981.07 739.296 1923.95 739.289C1799.88 739.289 1680.36 726.055 1566.9 699.666C1482.89 680.117 1400.82 653 1321.7 618.646C1242.56 584.273 1166.76 542.659 1095.28 494.335C1003 431.86 916.738 357.081 838.893 272.084C764.265 190.553 696.76 99.0134 638.282 0Z" fill="#F3F0EB"/>
<path d="M970.096 229.505C902.812 160.928 841.158 83.715 786.817 0H783.18C838.232 85.0174 900.808 163.302 969.185 232.841C1040.71 305.536 1119.33 369.304 1202.88 422.362C1332.81 504.885 1476.27 563.263 1629.28 595.883C1776 627.161 1933.65 634.745 2097.89 618.415V615.72C1933.72 632.05 1776.21 624.456 1629.71 593.128C1553.34 576.805 1478.57 553.721 1406.29 524.151C1334.02 494.564 1264.58 458.458 1198.85 416.281C1117.13 363.774 1040.18 300.927 970.096 229.505Z" fill="#F3F0EB"/>
</g>
</svg>
